<mxfile host="app.diagrams.net" modified="2023-11-29T10:59:49.626Z" agent="Mozilla/5.0 (Windows NT 10.0; Win64; x64) AppleWebKit/537.36 (KHTML, like Gecko) Chrome/119.0.0.0 Safari/537.36" etag="bwKsFFz9zkFwcwcptAQU" version="22.1.4" type="device">
  <diagram id="C5RBs43oDa-KdzZeNtuy" name="Page-1">
    <mxGraphModel dx="985" dy="549" grid="1" gridSize="10" guides="1" tooltips="1" connect="1" arrows="1" fold="1" page="1" pageScale="1" pageWidth="827" pageHeight="1169" math="0" shadow="0">
      <root>
        <mxCell id="WIyWlLk6GJQsqaUBKTNV-0" />
        <mxCell id="WIyWlLk6GJQsqaUBKTNV-1" parent="WIyWlLk6GJQsqaUBKTNV-0" />
        <mxCell id="WIyWlLk6GJQsqaUBKTNV-3" value="&lt;font style=&quot;font-size: 18px;&quot;&gt;수화 영상 입력&lt;/font&gt;" style="rounded=1;whiteSpace=wrap;html=1;fontSize=12;glass=0;strokeWidth=1;shadow=0;labelBackgroundColor=none;fillColor=#56517E;strokeColor=#EEEEEE;fontColor=#FFFFFF;" parent="WIyWlLk6GJQsqaUBKTNV-1" vertex="1">
          <mxGeometry x="280" y="80" width="360" height="50" as="geometry" />
        </mxCell>
        <mxCell id="WIyWlLk6GJQsqaUBKTNV-11" value="&lt;font style=&quot;font-size: 18px;&quot;&gt;가장 높은 확률로 부합하는 단어 반환&lt;/font&gt;" style="rounded=1;whiteSpace=wrap;html=1;fontSize=12;glass=0;strokeWidth=1;shadow=0;labelBackgroundColor=none;fillColor=#56517E;strokeColor=#EEEEEE;fontColor=#FFFFFF;" parent="WIyWlLk6GJQsqaUBKTNV-1" vertex="1">
          <mxGeometry x="280" y="490" width="360" height="60" as="geometry" />
        </mxCell>
        <mxCell id="AujRc0t6tKVxkued9hyM-8" style="edgeStyle=none;curved=1;rounded=1;orthogonalLoop=1;jettySize=auto;html=1;entryX=0.5;entryY=0;entryDx=0;entryDy=0;fontSize=12;startSize=8;endSize=8;labelBackgroundColor=none;strokeColor=#182E3E;fontColor=default;" parent="WIyWlLk6GJQsqaUBKTNV-1" source="AujRc0t6tKVxkued9hyM-0" target="AujRc0t6tKVxkued9hyM-1" edge="1">
          <mxGeometry relative="1" as="geometry" />
        </mxCell>
        <mxCell id="AujRc0t6tKVxkued9hyM-0" value="&lt;font style=&quot;font-size: 18px;&quot;&gt;MediaPipe Hands를 이용한&lt;br&gt;영상 손가락의 랜드마크 추출&lt;/font&gt;" style="rounded=1;whiteSpace=wrap;html=1;fontSize=12;glass=0;strokeWidth=1;shadow=0;labelBackgroundColor=none;fillColor=#56517E;strokeColor=#EEEEEE;fontColor=#FFFFFF;" parent="WIyWlLk6GJQsqaUBKTNV-1" vertex="1">
          <mxGeometry x="280" y="230" width="360" height="60" as="geometry" />
        </mxCell>
        <mxCell id="AujRc0t6tKVxkued9hyM-9" style="edgeStyle=none;curved=1;rounded=1;orthogonalLoop=1;jettySize=auto;html=1;entryX=0.5;entryY=0;entryDx=0;entryDy=0;fontSize=12;startSize=8;endSize=8;labelBackgroundColor=none;strokeColor=#182E3E;fontColor=default;" parent="WIyWlLk6GJQsqaUBKTNV-1" source="AujRc0t6tKVxkued9hyM-1" target="AujRc0t6tKVxkued9hyM-2" edge="1">
          <mxGeometry relative="1" as="geometry" />
        </mxCell>
        <mxCell id="AujRc0t6tKVxkued9hyM-1" value="&lt;font style=&quot;font-size: 18px;&quot;&gt;저장된 수화 단어목록에&lt;br&gt;&amp;nbsp;해당하는 랜드마크 집합 검색&lt;/font&gt;" style="rounded=1;whiteSpace=wrap;html=1;fontSize=12;glass=0;strokeWidth=1;shadow=0;labelBackgroundColor=none;fillColor=#56517E;strokeColor=#EEEEEE;fontColor=#FFFFFF;" parent="WIyWlLk6GJQsqaUBKTNV-1" vertex="1">
          <mxGeometry x="280" y="310" width="360" height="70" as="geometry" />
        </mxCell>
        <mxCell id="AujRc0t6tKVxkued9hyM-10" style="edgeStyle=none;curved=1;rounded=1;orthogonalLoop=1;jettySize=auto;html=1;entryX=0.5;entryY=0;entryDx=0;entryDy=0;fontSize=12;startSize=8;endSize=8;labelBackgroundColor=none;strokeColor=#182E3E;fontColor=default;" parent="WIyWlLk6GJQsqaUBKTNV-1" source="AujRc0t6tKVxkued9hyM-2" target="WIyWlLk6GJQsqaUBKTNV-11" edge="1">
          <mxGeometry relative="1" as="geometry" />
        </mxCell>
        <mxCell id="AujRc0t6tKVxkued9hyM-2" value="&lt;font style=&quot;font-size: 18px;&quot;&gt;저장된 랜드마크 집합원소 중 &lt;br&gt;가장 높은 확률로 일치하는 단어선택&lt;/font&gt;" style="rounded=1;whiteSpace=wrap;html=1;fontSize=12;glass=0;strokeWidth=1;shadow=0;labelBackgroundColor=none;fillColor=#56517E;strokeColor=#EEEEEE;fontColor=#FFFFFF;" parent="WIyWlLk6GJQsqaUBKTNV-1" vertex="1">
          <mxGeometry x="280" y="400" width="360" height="70" as="geometry" />
        </mxCell>
        <mxCell id="AujRc0t6tKVxkued9hyM-4" value="" style="edgeStyle=none;curved=1;rounded=1;orthogonalLoop=1;jettySize=auto;html=1;fontSize=12;startSize=8;endSize=8;exitX=0.5;exitY=1;exitDx=0;exitDy=0;labelBackgroundColor=none;strokeColor=#182E3E;fontColor=default;" parent="WIyWlLk6GJQsqaUBKTNV-1" source="WIyWlLk6GJQsqaUBKTNV-3" target="AujRc0t6tKVxkued9hyM-3" edge="1">
          <mxGeometry relative="1" as="geometry">
            <mxPoint x="410" y="180" as="targetPoint" />
          </mxGeometry>
        </mxCell>
        <mxCell id="AujRc0t6tKVxkued9hyM-3" value="&lt;font style=&quot;font-size: 18px;&quot;&gt;입력받은 영상을 프레임 단위로 분리&lt;/font&gt;" style="rounded=1;whiteSpace=wrap;html=1;fontSize=12;glass=0;strokeWidth=1;shadow=0;labelBackgroundColor=none;fillColor=#56517E;strokeColor=#EEEEEE;fontColor=#FFFFFF;" parent="WIyWlLk6GJQsqaUBKTNV-1" vertex="1">
          <mxGeometry x="280" y="150" width="360" height="60" as="geometry" />
        </mxCell>
        <mxCell id="AujRc0t6tKVxkued9hyM-5" value="" style="edgeStyle=none;curved=1;rounded=1;orthogonalLoop=1;jettySize=auto;html=1;fontSize=12;startSize=8;endSize=8;exitX=0.5;exitY=1;exitDx=0;exitDy=0;entryX=0.5;entryY=0;entryDx=0;entryDy=0;labelBackgroundColor=none;strokeColor=#182E3E;fontColor=default;" parent="WIyWlLk6GJQsqaUBKTNV-1" source="AujRc0t6tKVxkued9hyM-3" target="AujRc0t6tKVxkued9hyM-0" edge="1">
          <mxGeometry relative="1" as="geometry">
            <mxPoint x="208" y="119" as="sourcePoint" />
            <mxPoint x="409" y="199" as="targetPoint" />
          </mxGeometry>
        </mxCell>
      </root>
    </mxGraphModel>
  </diagram>
</mxfile>
